<svg width="32" height="21" viewBox="0 0 32 21" fill="none" xmlns="http://www.w3.org/2000/svg">
<path id="Shape" fill-rule="evenodd" clip-rule="evenodd" d="M29.3333 4.33337H29.6547C30.9413 4.33337 31.988 5.38004 31.988 6.66671V14C31.988 15.2867 30.9413 16.3334 29.6547 16.3334H29.3333V16.6667C29.3333 18.6894 27.688 20.3334 25.6667 20.3334H3.66667C1.64533 20.3334 0 18.6894 0 16.6667V4.00004C0 1.97737 1.64533 0.333374 3.66667 0.333374H25.6667C27.688 0.333374 29.3333 1.97737 29.3333 4.00004V4.33337ZM8.33333 16.3334C8.88533 16.3334 9.33333 15.8854 9.33333 15.3334V5.33337C9.33333 4.78137 8.88533 4.33337 8.33333 4.33337H5C4.448 4.33337 4 4.78137 4 5.33337V15.3334C4 15.8854 4.448 16.3334 5 16.3334H8.33333ZM17.3333 15.3334C17.3333 15.8854 16.8853 16.3334 16.3333 16.3334H13C12.448 16.3334 12 15.8854 12 15.3334V5.33337C12 4.78137 12.448 4.33337 13 4.33337H16.3333C16.8853 4.33337 17.3333 4.78137 17.3333 5.33337V15.3334ZM24.3333 16.3334C24.8853 16.3334 25.3333 15.8854 25.3333 15.3334V5.33337C25.3333 4.78137 24.8853 4.33337 24.3333 4.33337H21C20.448 4.33337 20 4.78137 20 5.33337V15.3334C20 15.8854 20.448 16.3334 21 16.3334H24.3333Z" fill="white"/>
</svg>
