<svg width="19" height="28" viewBox="0 0 19 28" fill="none" xmlns="http://www.w3.org/2000/svg">
<path id="Shape" fill-rule="evenodd" clip-rule="evenodd" d="M11.9471 13.9306L17.9215 7.93128C18.2696 7.5825 18.4425 7.09494 18.395 6.60433C18.3463 6.11311 18.0797 5.66937 17.6719 5.39424L10.0748 0.281805C9.56774 -0.0602818 8.90852 -0.0931513 8.36982 0.193544C7.83052 0.480849 7.48295 1.04207 7.48295 1.65198V9.59363L3.53313 5.60059C2.89035 4.95294 1.85435 4.94867 1.20669 5.59024C0.559041 6.23302 0.554172 7.27937 1.19695 7.92702L7.15 13.9294L1.19695 19.9311C0.554172 20.5782 0.559041 21.6245 1.20669 22.2685C1.85435 22.9107 2.89095 22.907 3.53313 22.2582L7.48295 18.2651V26.2062C7.48295 26.8167 7.83052 27.3779 8.36982 27.6646C8.90852 27.9519 9.56774 27.9184 10.0748 27.5757L17.6713 22.4651C18.0803 22.1894 18.3463 21.745 18.3944 21.255C18.4419 20.7638 18.269 20.2775 17.9209 19.9275L11.9471 13.9306ZM10.8357 4.75694L14.1938 7.01702L10.8357 10.3886V4.75694ZM10.8357 17.4732V23.1048L14.1938 20.8448L10.8357 17.4732Z" fill="white"/>
</svg>
